<?xml version="1.0" encoding="UTF-8"?> <svg xmlns="http://www.w3.org/2000/svg" width="393" height="266" viewBox="0 0 393 266" fill="none"><g filter="url(#filter0_d_8757_76698)"><path d="M8.24219 9.3867C8.24219 6.04603 10.9503 3.33789 14.291 3.33789H337.298C340.638 3.33789 343.346 6.04604 343.346 9.38671V23.9039H8.24219V9.3867Z" fill="#272756" shape-rendering="crispEdges"></path><circle cx="23.8342" cy="13.6213" r="4.09982" fill="white"></circle><circle cx="36.9514" cy="13.6203" r="4.09982" fill="white"></circle><circle cx="50.0686" cy="13.6203" r="4.09982" fill="white"></circle></g><path d="M8.91958 24.5817H342.669V213.232C342.669 216.199 340.264 218.604 337.298 218.604H14.291C11.3245 218.604 8.91958 216.199 8.91958 213.232V24.5817Z" fill="white"></path><path d="M49.6074 42.3419H48.5378V50.2227H53.6153V49.2882H49.6074V42.3419ZM57.2796 50.3352C58.9121 50.3352 60.1167 49.0968 60.1167 47.3743C60.1167 45.6518 58.9121 44.4359 57.2909 44.4359C55.6584 44.4359 54.4538 45.6743 54.4538 47.3968C54.4538 49.1193 55.6584 50.3352 57.2796 50.3352ZM57.2909 49.4796C56.2326 49.4796 55.467 48.624 55.467 47.3856C55.467 46.1472 56.2213 45.2915 57.2796 45.2915C58.3379 45.2915 59.1035 46.1472 59.1035 47.3856C59.1035 48.624 58.3492 49.4796 57.2909 49.4796ZM65.6328 45.3816C65.2163 44.7849 64.5633 44.4359 63.7527 44.4359C62.2103 44.4359 61.0507 45.6405 61.0507 47.3068C61.0507 48.9505 62.199 50.1438 63.7302 50.1438C64.5633 50.1438 65.2163 49.7948 65.6328 49.2094V49.671C65.6328 50.9657 64.9348 51.72 63.7639 51.72C62.7507 51.72 62.0865 51.2359 61.76 50.3465L60.9494 50.6505C61.3209 51.8664 62.3341 52.5869 63.7302 52.5869C65.5202 52.5869 66.6461 51.4048 66.6461 49.5359V44.571H65.6328V45.3816ZM63.854 49.2882C62.807 49.2882 62.0752 48.4551 62.0752 47.2955C62.0752 46.1246 62.807 45.2915 63.854 45.2915C64.8898 45.2915 65.6328 46.1246 65.6328 47.2955C65.6328 48.4551 64.8898 49.2882 63.854 49.2882ZM70.7148 50.3352C72.3472 50.3352 73.5519 49.0968 73.5519 47.3743C73.5519 45.6518 72.3472 44.4359 70.726 44.4359C69.0936 44.4359 67.889 45.6743 67.889 47.3968C67.889 49.1193 69.0936 50.3352 70.7148 50.3352ZM70.726 49.4796C69.6678 49.4796 68.9022 48.624 68.9022 47.3856C68.9022 46.1472 69.6565 45.2915 70.7148 45.2915C71.7731 45.2915 72.5386 46.1472 72.5386 47.3856C72.5386 48.624 71.7843 49.4796 70.726 49.4796Z" fill="#222222"></path><g clip-path="url(#clip0_8757_76698)"><path d="M42.1727 43.7718C41.4355 42.988 40.499 42.4637 39.4788 42.2519C39.7153 41.7984 39.8492 41.2834 39.8492 40.7376C39.8492 38.926 38.3754 37.4521 36.5638 37.4521C34.7521 37.4521 33.2783 38.926 33.2783 40.7376C33.2783 41.2834 33.4122 41.7984 33.6488 42.2519C32.6285 42.4637 31.692 42.988 30.9548 43.7718C30.0318 44.7532 29.5234 46.0314 29.5234 47.3712V48.0326C29.5234 49.5475 30.1134 50.9716 31.1846 52.0429C31.5015 52.3597 31.9225 52.5341 32.3705 52.5341C33.0322 52.5341 33.6126 52.1634 33.8851 51.5665C34.166 50.9512 34.0616 50.2471 33.6126 49.7288C33.4428 49.533 33.1464 49.5118 32.9505 49.6815C32.7545 49.8513 32.7334 50.1477 32.9032 50.3436C33.1487 50.627 33.1303 50.9597 33.0313 51.1766C32.9115 51.4388 32.6644 51.5954 32.3705 51.5954C32.1732 51.5954 31.9878 51.5186 31.8483 51.3792C30.9545 50.4852 30.4621 49.2966 30.4621 48.0326V47.3712C30.4621 45.1807 32.1595 43.3088 34.2864 43.1034C34.8774 43.6726 35.6804 44.0231 36.5638 44.0231C37.4471 44.0231 38.2501 43.6726 38.8411 43.1034C40.968 43.3088 42.6654 45.1807 42.6654 47.3712V48.0326C42.6654 49.2966 42.173 50.4852 41.2792 51.379C41.1397 51.5186 40.9543 51.5954 40.757 51.5954C40.334 51.5954 40.1549 51.3034 40.0976 51.1777C39.9984 50.9605 39.9802 50.6272 40.2263 50.343C40.3961 50.1471 40.3748 49.8507 40.1789 49.6809C39.983 49.5111 39.6866 49.5324 39.5169 49.7283C39.0672 50.2472 38.9626 50.9521 39.2437 51.5678C39.5159 52.1637 40.0958 52.5341 40.757 52.5341C41.2049 52.5341 41.6261 52.3597 41.9429 52.0429C43.0141 50.9716 43.6041 49.5475 43.6041 48.0326V47.3712C43.6041 46.0314 43.0957 44.7532 42.1727 43.7718ZM34.217 40.7376C34.217 39.4436 35.2697 38.3909 36.5638 38.3909C37.8578 38.3909 38.9105 39.4436 38.9105 40.7376C38.9105 42.0317 37.8578 43.0844 36.5638 43.0844C35.2697 43.0844 34.217 42.0317 34.217 40.7376Z" fill="#625EE9"></path><path d="M36.5572 53.4725C36.4475 53.4725 36.338 53.4342 36.2498 53.3579C35.8695 53.0282 35.5115 52.7262 35.1654 52.4339C34.2268 51.6418 33.4162 50.9575 32.8495 50.2902C32.1953 49.5197 31.8906 48.794 31.8906 48.0062C31.8906 47.2806 32.1401 46.6007 32.5928 46.0919C33.0707 45.5547 33.7335 45.2588 34.4586 45.2588C35.2686 45.2588 35.9702 45.6411 36.4877 46.3645C36.5118 46.3981 36.5349 46.4318 36.5572 46.4654C36.5794 46.4318 36.6025 46.3981 36.6266 46.3645C37.1441 45.6411 37.8457 45.2588 38.6557 45.2588C39.3809 45.2588 40.0436 45.5547 40.5215 46.0919C40.9744 46.6007 41.2237 47.2806 41.2237 48.0062C41.2237 49.2632 40.4374 50.1875 39.5878 50.999C39.1221 51.4438 38.5786 51.9025 37.9492 52.4338C37.6029 52.7261 37.2449 53.0282 36.8646 53.3579C36.7763 53.4342 36.6668 53.4725 36.5572 53.4725ZM34.4586 46.1975C33.5298 46.1975 32.8295 46.9751 32.8295 48.0062C32.8295 49.234 33.9366 50.1684 35.7709 51.7166C36.025 51.9311 36.2854 52.151 36.5572 52.3837C36.829 52.151 37.0896 51.931 37.3437 51.7165C37.9613 51.1952 38.4946 50.7451 38.9394 50.3202C39.9077 49.3953 40.285 48.7466 40.285 48.0062C40.285 46.9751 39.5846 46.1975 38.6558 46.1975C38.1618 46.1975 37.7409 46.4306 37.4048 46.8904C37.1254 47.2725 37.0103 47.6699 37.009 47.6738C36.9528 47.8772 36.768 48.0171 36.557 48.0171C36.3461 48.0171 36.1613 47.8754 36.1049 47.6722C36.1042 47.6699 35.989 47.2725 35.7096 46.8904C35.3735 46.4306 34.9526 46.1975 34.4586 46.1975Z" fill="#625EE9"></path></g><path d="M38.7359 82.1943L34.7015 71.8875H32.8463L28.8266 82.1943H30.6671L31.4917 80.0004H36.0414L36.866 82.1943H38.7359ZM33.7886 73.9341L35.5114 78.5428H32.0512L33.7886 73.9341ZM44.0357 74.582C43.005 74.582 42.1804 75.0384 41.6651 75.9366V74.7881H39.9718V82.1943H41.6651V78.5722C41.6651 76.8348 42.5633 76.0249 43.594 76.0249C44.5216 76.0249 45.0811 76.6728 45.0811 77.7182V82.1943H46.7744V77.4974C46.7744 75.701 45.6701 74.582 44.0357 74.582ZM52.6631 74.582C51.6324 74.582 50.8078 75.0384 50.2925 75.9366V74.7881H48.5992V82.1943H50.2925V78.5722C50.2925 76.8348 51.1907 76.0249 52.2213 76.0249C53.149 76.0249 53.7085 76.6728 53.7085 77.7182V82.1943H55.4017V77.4974C55.4017 75.701 54.2974 74.582 52.6631 74.582ZM62.115 78.1599C62.115 80.0152 61.2316 80.8986 60.1714 80.8986C59.2585 80.8986 58.7285 80.2508 58.7285 79.2495V74.7881H57.0352V79.4557C57.0352 81.2373 58.1248 82.3416 59.7003 82.3416C60.7751 82.3416 61.5997 81.841 62.115 80.9133V82.1943H63.8083V74.7881H62.115V78.1599ZM68.6249 74.582C66.9169 74.582 65.6948 75.6274 65.415 77.1293L66.7549 77.5268C67.0494 76.5697 67.5795 76.0544 68.5513 76.0544C69.4641 76.0544 70.0678 76.6581 70.112 77.6299L68.1537 77.9685C66.4752 78.263 65.6653 78.9698 65.6653 80.1624C65.6653 81.4729 66.6371 82.3416 68.0359 82.3416C69.0372 82.3416 69.8028 81.8851 70.2445 81.0606V82.1943H71.7906V77.6004C71.7906 75.8041 70.5979 74.582 68.6249 74.582ZM68.4187 81.1489C67.8003 81.1489 67.3586 80.7955 67.3586 80.2066C67.3586 79.5735 67.8445 79.2642 68.6985 79.1023L70.112 78.8225V79.0728C70.112 80.2508 69.4053 81.1489 68.4187 81.1489ZM75.3561 82.1943V71.8875L73.6628 71.8875V82.1943H75.3561ZM87.8422 79.4409C87.6213 78.4397 87.1502 77.8655 86.3256 77.571C87.5183 77.144 88.2398 76.1722 88.2398 74.8617C88.2398 73.0507 86.8999 71.8875 84.8385 71.8875H80.5096V82.1943H82.2618V78.1158H83.9403C85.2508 78.1158 85.8986 78.6164 86.1637 79.8974L86.6496 82.1943H88.4312L87.8422 79.4409ZM82.2618 73.4482H84.7943C85.8103 73.4482 86.4729 74.1108 86.4729 75.0237C86.4729 75.9366 85.8103 76.5845 84.7796 76.5845H82.2618V73.4482ZM92.911 74.582C91.203 74.582 89.9809 75.6274 89.7011 77.1293L91.041 77.5268C91.3355 76.5697 91.8656 76.0544 92.8373 76.0544C93.7502 76.0544 94.3539 76.6581 94.3981 77.6299L92.4398 77.9685C90.7613 78.263 89.9514 78.9698 89.9514 80.1624C89.9514 81.4729 90.9232 82.3416 92.322 82.3416C93.3232 82.3416 94.0889 81.8851 94.5306 81.0606V82.1943H96.0766V77.6004C96.0766 75.8041 94.884 74.582 92.911 74.582ZM92.7048 81.1489C92.0864 81.1489 91.6447 80.7955 91.6447 80.2066C91.6447 79.5735 92.1306 79.2642 92.9846 79.1023L94.3981 78.8225V79.0728C94.3981 80.2508 93.6913 81.1489 92.7048 81.1489ZM100.054 74.0225C100.054 73.4924 100.364 73.1538 100.82 73.1538C101.1 73.1538 101.321 73.2863 101.497 73.5071L102.602 72.8004C102.248 72.1231 101.586 71.7402 100.761 71.7402C99.3477 71.7402 98.3612 72.6973 98.3612 74.0814V74.7881H97.2127V76.2311H98.3612V82.1943H100.054V76.2311H101.821V74.7881H100.054V74.0225ZM105.36 74.0225C105.36 73.4924 105.669 73.1538 106.126 73.1538C106.406 73.1538 106.627 73.2863 106.803 73.5071L107.908 72.8004C107.554 72.1231 106.892 71.7402 106.067 71.7402C104.654 71.7402 103.667 72.6973 103.667 74.0814V74.7881H102.519V76.2311H103.667V82.1943H105.36V76.2311H107.127V74.7881H105.36V74.0225ZM110.498 82.1943V71.8875H108.805V82.1943H110.498ZM115.71 74.582C113.59 74.582 112.059 76.2016 112.059 78.5133C112.059 80.8544 113.723 82.3416 115.813 82.3416C117.227 82.3416 118.331 81.6495 118.935 80.6041L117.86 79.8532C117.418 80.5158 116.712 80.9575 115.843 80.9575C114.724 80.9575 113.767 80.2213 113.693 78.9109H119.067C119.406 76.6139 118.037 74.582 115.71 74.582ZM115.681 75.9072C116.697 75.9072 117.404 76.6286 117.507 77.7035H113.752C113.855 76.6139 114.65 75.9072 115.681 75.9072Z" fill="#272756"></path><rect x="28.5469" y="91.918" width="100.932" height="4.34055" rx="1.42537" fill="#F5F5F5"></rect><rect x="28.5469" y="101.801" width="79.2551" height="4.74176" rx="1.42537" fill="#F5F5F5"></rect><rect x="28.5469" y="120.768" width="55.5463" height="14.2253" rx="7.11264" fill="#625EE9"></rect><rect x="167.359" y="37.7344" width="156.738" height="102.16" rx="5.41916" fill="#ECEBFF"></rect><rect x="236.138" y="78.4157" width="18.967" height="18.967" rx="2.03218" stroke="#625EE9" stroke-width="1.35479"></rect><path d="M236.141 90.6088L242.915 85.5283L252.398 97.044" stroke="#625EE9" stroke-width="1.35479"></path><circle cx="249.012" cy="83.8352" r="2.70958" stroke="#625EE9" stroke-width="1.35479"></circle><path d="M37.479 163.557C37.479 161.274 35.6653 160.866 34.018 160.564V157.466C34.8039 157.677 35.3328 158.252 35.5898 159.038L37.1918 158.584C36.7686 157.133 35.6804 156.121 34.018 155.924V154.579H32.8542V155.924C30.9499 156.121 29.6653 157.345 29.6653 159.098C29.6653 161.259 31.2824 161.728 32.8542 162.045V165.295C31.7812 165.143 31.0859 164.478 30.7837 163.284L29.1816 163.738C29.5293 165.567 30.7988 166.67 32.8542 166.806V168.136H34.018V166.791C36.1036 166.564 37.479 165.4 37.479 163.557ZM31.3278 158.902C31.3278 158.131 31.887 157.541 32.8542 157.405V160.322C31.9776 160.096 31.3278 159.748 31.3278 158.902ZM34.018 162.287C35.0003 162.514 35.756 162.861 35.756 163.813C35.756 164.599 35.0759 165.143 34.018 165.295V162.287ZM44.9867 162.907V156.09H43.1428L38.2309 162.967V164.494H43.2184V166.67H44.9867V164.494H46.2864V162.907H44.9867ZM43.3242 162.907H40.1201L43.3242 158.418V162.907ZM51.4405 159.582C50.5941 159.582 49.8384 159.884 49.2944 160.383L49.6571 157.693H54.2818V156.09H48.2364L47.4354 162.045L49.0374 162.408C49.3246 161.682 50.05 161.048 51.0929 161.048C52.2717 161.048 53.0576 161.894 53.0576 163.148C53.0576 164.388 52.2566 165.219 51.0475 165.219C50.0349 165.219 49.385 164.69 49.0072 163.813L47.4052 164.403C47.9039 165.884 49.1735 166.821 50.9568 166.821C53.2843 166.821 54.841 165.355 54.841 163.148C54.841 161.017 53.4808 159.582 51.4405 159.582ZM56.2662 166.67H57.3694V167.214C57.3694 167.622 57.1276 167.909 56.7498 167.909C56.508 167.909 56.2813 167.864 56.0848 167.743L55.7523 168.317C56.0243 168.514 56.3568 168.604 56.7498 168.604C57.6264 168.604 58.2007 168.015 58.2007 167.108V164.811H56.2662V166.67ZM63.478 164.131C65.8961 162.453 66.7727 160.897 66.7727 159.249C66.7727 157.209 65.3823 155.894 63.2211 155.894C60.9994 155.894 59.5485 157.224 59.5485 159.295C59.5485 159.884 59.6694 160.428 59.8659 160.912L61.4679 160.383C61.3621 160.065 61.2865 159.687 61.2865 159.34C61.2865 158.206 62.012 157.496 63.1455 157.496C64.2488 157.496 64.9742 158.221 64.9742 159.37C64.9742 160.625 64.1883 161.924 62.0724 163.421L59.5636 165.189V166.67H66.8483V165.068H62.1178L63.478 164.131ZM70.3543 156.09C69.916 157.3 69.0545 157.919 67.6489 158.04V159.748C68.6918 159.672 69.4626 159.37 70.0218 158.796V166.67H71.8354V156.09H70.3543ZM77.8184 166.821C80.4633 166.821 81.9444 164.871 81.9444 161.365C81.9444 157.844 80.4633 155.894 77.8184 155.894C75.1584 155.894 73.6773 157.844 73.6773 161.365C73.6773 164.871 75.1584 166.821 77.8184 166.821ZM77.8184 165.219C76.3222 165.219 75.4909 163.844 75.4909 161.365C75.4909 158.886 76.3222 157.496 77.8184 157.496C79.2995 157.496 80.1308 158.886 80.1308 161.365C80.1308 163.844 79.2995 165.219 77.8184 165.219Z" fill="#272756"></path><path d="M93.2736 164.386C93.1335 163.742 92.8251 163.349 92.2924 163.144C93.0681 162.882 93.526 162.265 93.526 161.433C93.526 160.303 92.6849 159.574 91.386 159.574H88.7039V166.115H89.7039V163.452H90.8813C91.713 163.452 92.1429 163.788 92.3205 164.611L92.6475 166.115H93.6474L93.2736 164.386ZM89.7039 160.452H91.3673C92.0681 160.452 92.526 160.891 92.526 161.527C92.526 162.162 92.0681 162.592 91.3579 162.592H89.7039V160.452ZM96.4918 161.303C95.4264 161.303 94.6508 161.947 94.4732 162.901L95.2395 163.125C95.4264 162.489 95.7909 162.134 96.445 162.134C97.0805 162.134 97.4917 162.545 97.5197 163.218L96.2581 163.443C95.1461 163.648 94.6414 164.097 94.6414 164.854C94.6414 165.676 95.2489 166.209 96.1366 166.209C96.8001 166.209 97.2954 165.9 97.5851 165.349V166.115H98.4636V163.2C98.4636 162.06 97.7066 161.303 96.4918 161.303ZM96.3329 165.517C95.903 165.517 95.5946 165.284 95.5946 164.872C95.5946 164.433 95.9217 164.218 96.5852 164.097L97.5197 163.919V164.069C97.5197 164.91 97.0244 165.517 96.3329 165.517ZM100.634 160.527V159.518H99.6155V160.527H100.634ZM100.606 166.115V161.415H99.6529V166.115H100.606ZM103.413 166.209C104.553 166.209 105.338 165.639 105.338 164.751C105.338 162.779 102.609 163.779 102.609 162.63C102.609 162.265 102.945 162.022 103.459 162.022C103.973 162.022 104.31 162.302 104.459 162.732L105.198 162.48C105.001 161.76 104.394 161.303 103.534 161.303C102.469 161.303 101.731 161.835 101.731 162.714C101.731 164.713 104.45 163.732 104.45 164.844C104.45 165.227 104.076 165.47 103.478 165.47C102.843 165.47 102.422 165.134 102.254 164.592L101.534 164.835C101.731 165.713 102.431 166.209 103.413 166.209ZM108.371 161.303C107.034 161.303 106.072 162.321 106.072 163.779C106.072 165.265 107.118 166.209 108.427 166.209C109.333 166.209 110.025 165.751 110.408 165.078L109.782 164.657C109.501 165.125 109.034 165.424 108.445 165.424C107.688 165.424 107.044 164.928 106.997 163.994H110.473C110.651 162.536 109.819 161.303 108.371 161.303ZM108.352 162.05C109.053 162.05 109.529 162.545 109.595 163.274H107.025C107.1 162.536 107.651 162.05 108.352 162.05ZM114.938 162.069C114.62 161.583 114.106 161.303 113.424 161.303C112.097 161.303 111.228 162.312 111.228 163.751C111.228 165.199 112.097 166.209 113.424 166.209C114.115 166.209 114.62 165.928 114.938 165.442V166.115H115.891V159.574H114.938V162.069ZM113.564 165.396C112.732 165.396 112.181 164.723 112.181 163.751C112.181 162.779 112.732 162.106 113.564 162.106C114.396 162.106 114.938 162.779 114.938 163.751C114.938 164.723 114.396 165.396 113.564 165.396Z" fill="#272756"></path><path d="M30.9541 173.962C29.3265 173.962 28.007 175.282 28.007 176.909L28.007 192.723C28.007 194.351 29.3264 195.67 30.9541 195.67L320.78 195.67C322.407 195.67 323.727 194.351 323.727 192.723L323.727 176.909C323.727 175.281 322.407 173.962 320.78 173.962L30.9541 173.962Z" fill="white" stroke="#272756" stroke-width="1.14229"></path><mask id="mask0_8757_76698" style="mask-type:alpha" maskUnits="userSpaceOnUse" x="28" y="174" width="95" height="22"><path d="M28.5469 177.194C28.5469 175.882 29.6106 174.818 30.9227 174.818L122.027 174.818L122.027 195.14H30.9227C29.6106 195.14 28.5469 194.076 28.5469 192.764L28.5469 177.194Z" fill="#0F712B"></path></mask><g mask="url(#mask0_8757_76698)"><rect x="11.4062" y="133.814" width="144.918" height="81.6255" fill="#ECEBFF"></rect><path d="M32.2672 168.916L31.8896 180.849C31.8631 181.685 32.4525 182.414 33.2754 182.564C34.0978 182.714 34.906 182.239 35.1758 181.448L39.0216 170.17C39.421 168.999 38.6914 167.745 37.4758 167.513L34.6817 166.981C33.4534 166.747 32.3067 167.666 32.2672 168.916Z" fill="#BFBDFF"></path><path d="M68.8219 169.096L50.7982 176.841C50.027 177.172 49.6316 178.033 49.8831 178.834C50.1344 179.635 50.9508 180.115 51.7727 179.946L70.9627 176.002C72.1373 175.76 72.8498 174.56 72.4998 173.413L71.5715 170.371C71.2177 169.212 69.9355 168.617 68.8219 169.096Z" fill="#BFBDFF"></path><path d="M78.8765 168.916L78.4989 180.849C78.4725 181.685 79.0619 182.414 79.8847 182.564C80.7072 182.714 81.5153 182.239 81.7852 181.448L85.631 170.17C86.0304 168.999 85.3008 167.745 84.0852 167.513L81.2911 166.981C80.0627 166.747 78.9161 167.666 78.8765 168.916Z" fill="#BFBDFF"></path><path d="M71.057 190.602L60.8065 184.656C60.039 184.211 59.062 184.39 58.502 185.078C57.9414 185.767 57.9651 186.761 58.5579 187.423L66.4495 196.228C67.28 197.155 68.7398 197.126 69.5326 196.167L71.6045 193.661C72.406 192.691 72.1451 191.234 71.057 190.602Z" fill="#BFBDFF"></path><path d="M37.2818 192.739L48.1169 187.57C48.8331 187.229 49.1886 186.412 48.9505 185.655C48.7128 184.899 47.9558 184.433 47.1741 184.562L35.3472 186.503C34.1317 186.702 33.3705 187.928 33.73 189.106L34.4595 191.497C34.8226 192.687 36.1589 193.275 37.2818 192.739Z" fill="#BFBDFF"></path><path d="M115.439 169.096L97.4154 176.841C96.6442 177.172 96.2488 178.033 96.5002 178.834C96.7516 179.635 97.568 180.115 98.3899 179.946L117.58 176.002C118.754 175.76 119.467 174.56 119.117 173.413L118.189 170.371C117.835 169.212 116.553 168.617 115.439 169.096Z" fill="#BFBDFF"></path><path d="M117.674 190.602L107.424 184.656C106.656 184.211 105.679 184.39 105.119 185.078C104.559 185.767 104.582 186.761 105.175 187.423L113.067 196.228C113.897 197.155 115.357 197.126 116.15 196.167L118.222 193.661C119.023 192.691 118.762 191.234 117.674 190.602Z" fill="#BFBDFF"></path><path d="M83.899 192.739L94.7341 187.57C95.4503 187.229 95.8058 186.412 95.5677 185.655C95.33 184.899 94.573 184.433 93.7913 184.562L81.9644 186.503C80.7489 186.702 79.9877 187.928 80.3472 189.106L81.0767 191.497C81.4398 192.687 82.7761 193.275 83.899 192.739Z" fill="#BFBDFF"></path></g><path d="M8.91958 24.5817H342.669V213.232C342.669 216.199 340.264 218.604 337.298 218.604H14.291C11.3245 218.604 8.91958 216.199 8.91958 213.232V24.5817Z" stroke="#272756" stroke-width="1.35479"></path><g filter="url(#filter1_d_8757_76698)"><rect x="267.438" y="98.5469" width="92.5596" height="59.3049" rx="5.76809" fill="white" shape-rendering="crispEdges"></rect><path d="M285.61 114.729H281.888V120.393H282.851V118.208H285.278V117.351H282.851V115.587H285.61V114.729ZM288.282 120.473C289.479 120.473 290.369 119.559 290.369 118.33C290.369 117.1 289.479 116.21 288.298 116.21C287.101 116.21 286.211 117.124 286.211 118.354C286.211 119.584 287.101 120.473 288.282 120.473ZM288.298 119.681C287.627 119.681 287.141 119.139 287.141 118.338C287.141 117.545 287.61 117.003 288.282 117.003C288.953 117.003 289.439 117.545 289.439 118.346C289.439 119.139 288.97 119.681 288.298 119.681ZM293.434 116.21C292.868 116.21 292.415 116.461 292.132 116.954V116.323H291.201V120.393H292.132V118.402C292.132 117.448 292.625 117.003 293.192 117.003C293.701 117.003 294.009 117.359 294.009 117.933V120.393H294.939V117.812C294.939 116.825 294.332 116.21 293.434 116.21ZM297.932 119.519C297.819 119.624 297.681 119.697 297.503 119.697C297.244 119.697 297.099 119.511 297.099 119.179V117.116H298.167V116.323H297.099V115.012L296.168 115.417V116.323H295.521V117.116H296.168V119.276C296.168 120.045 296.581 120.473 297.325 120.473C297.827 120.473 298.183 120.295 298.417 120.029L297.932 119.519ZM300.383 120.473C301.378 120.473 302.074 119.972 302.074 119.179C302.074 117.48 299.752 118.289 299.752 117.375C299.752 117.092 300.027 116.906 300.423 116.906C300.844 116.906 301.119 117.148 301.248 117.496L301.96 117.262C301.79 116.622 301.256 116.21 300.496 116.21C299.566 116.21 298.91 116.687 298.91 117.464C298.91 119.195 301.208 118.402 301.208 119.284C301.208 119.575 300.917 119.762 300.447 119.762C299.922 119.762 299.574 119.486 299.436 119.041L298.732 119.276C298.902 120.045 299.517 120.473 300.383 120.473Z" fill="#272756"></path><path d="M291.163 141.008L287.332 131.112H285.367L281.536 141.008H283.515L284.25 139.015H288.449L289.17 141.008H291.163ZM286.356 133.317L287.869 137.459H284.83L286.356 133.317ZM294.912 133.671C293.243 133.671 292.07 134.689 291.787 136.145L293.215 136.569C293.498 135.706 293.964 135.24 294.827 135.24C295.633 135.24 296.17 135.777 296.212 136.611L294.374 136.936C292.819 137.205 292.028 137.869 292.028 139.029C292.028 140.287 292.961 141.149 294.332 141.149C295.251 141.149 295.944 140.767 296.354 140.047V141.008H298.008V136.597C298.008 134.858 296.863 133.671 294.912 133.671ZM294.756 139.891C294.219 139.891 293.837 139.58 293.837 139.071C293.837 138.506 294.261 138.251 294.912 138.124L296.212 137.869V138.11C296.212 139.099 295.618 139.891 294.756 139.891Z" fill="#272756"></path><path d="M312.887 141.008L308.985 131.112H307.388L303.472 141.008H305.055L305.903 138.788H310.441L311.289 141.008H312.887ZM308.179 132.823L309.975 137.544H306.384L308.179 132.823ZM316.667 133.727C315.055 133.727 313.882 134.703 313.613 136.145L314.772 136.484C315.055 135.523 315.606 134.985 316.596 134.985C317.557 134.985 318.179 135.608 318.222 136.625L316.313 136.965C314.631 137.276 313.867 137.954 313.867 139.099C313.867 140.343 314.786 141.149 316.129 141.149C317.133 141.149 317.882 140.683 318.321 139.849V141.008H319.649V136.597C319.649 134.872 318.504 133.727 316.667 133.727ZM316.426 140.103C315.776 140.103 315.309 139.75 315.309 139.128C315.309 138.463 315.804 138.138 316.808 137.954L318.222 137.686V137.912C318.222 139.184 317.472 140.103 316.426 140.103Z" fill="#272756"></path><path d="M334.633 141.008L330.66 131.112H329.402L325.416 141.008H326.631L327.578 138.59H332.456L333.403 141.008H334.633ZM330.024 132.384L332.074 137.615H327.96L330.024 132.384ZM338.443 133.77C336.874 133.77 335.729 134.717 335.46 136.145L336.379 136.413C336.662 135.339 337.298 134.745 338.401 134.745C339.489 134.745 340.224 135.466 340.253 136.625L338.273 136.993C336.464 137.332 335.729 138.039 335.729 139.156C335.729 140.386 336.648 141.149 337.934 141.149C339.023 141.149 339.828 140.612 340.295 139.665V141.008H341.327V136.597C341.327 134.887 340.182 133.77 338.443 133.77ZM338.132 140.301C337.383 140.301 336.831 139.905 336.831 139.17C336.831 138.421 337.383 138.039 338.697 137.799L340.253 137.516V137.714C340.253 139.241 339.362 140.301 338.132 140.301Z" fill="#272756"></path></g><g filter="url(#filter2_d_8757_76698)"><rect x="267.438" y="165.223" width="92.4924" height="62.7062" rx="5.46975" fill="white" shape-rendering="crispEdges"></rect><path d="M284.406 183.58C284.859 183.35 285.127 182.943 285.127 182.406C285.127 181.547 284.445 180.979 283.424 180.979H281.138V186.35H283.524C284.567 186.35 285.265 185.751 285.265 184.861C285.265 184.255 284.943 183.802 284.406 183.58ZM284.207 182.498C284.207 182.943 283.892 183.235 283.393 183.235H282.051V181.769H283.393C283.892 181.769 284.207 182.061 284.207 182.498ZM282.051 185.552V184.002H283.478C284.007 184.002 284.345 184.301 284.345 184.769C284.345 185.237 284.007 185.552 283.486 185.552H282.051ZM287.93 182.406C287.523 182.406 287.178 182.606 286.963 183.097V182.491H286.081V186.35H286.963V184.639C286.963 183.618 287.278 183.204 287.823 183.204C287.968 183.204 288.083 183.235 288.175 183.281L288.475 182.552C288.329 182.46 288.145 182.406 287.93 182.406ZM290.364 182.383C289.474 182.383 288.838 182.928 288.692 183.71L289.39 183.918C289.543 183.419 289.82 183.15 290.326 183.15C290.802 183.15 291.116 183.465 291.139 183.971L290.119 184.148C289.244 184.301 288.822 184.669 288.822 185.291C288.822 185.974 289.329 186.426 290.057 186.426C290.579 186.426 290.978 186.188 291.208 185.759V186.35H292.014V183.956C292.014 183.02 291.392 182.383 290.364 182.383ZM290.257 185.805C289.935 185.805 289.705 185.621 289.705 185.314C289.705 184.984 289.958 184.823 290.403 184.738L291.139 184.593V184.723C291.139 185.337 290.771 185.805 290.257 185.805ZM295.084 182.383C294.547 182.383 294.117 182.621 293.849 183.089V182.491H292.966V186.35H293.849V184.462C293.849 183.557 294.317 183.135 294.854 183.135C295.337 183.135 295.629 183.473 295.629 184.017V186.35H296.511V183.902C296.511 182.966 295.935 182.383 295.084 182.383ZM300.262 182.966C300.009 182.59 299.61 182.383 299.073 182.383C297.976 182.383 297.255 183.219 297.255 184.409C297.255 185.598 297.976 186.426 299.073 186.426C299.617 186.426 300.009 186.219 300.262 185.843V186.35H301.144V180.979H300.262V182.966ZM299.203 185.674C298.566 185.674 298.137 185.153 298.137 184.409C298.137 183.657 298.566 183.135 299.203 183.135C299.84 183.135 300.262 183.657 300.262 184.409C300.262 185.153 299.84 185.674 299.203 185.674ZM306.256 186.426C307.438 186.426 308.312 185.767 308.627 184.692L307.852 184.439C307.606 185.191 307.062 185.613 306.279 185.613C305.22 185.613 304.514 184.808 304.514 183.672C304.514 182.498 305.243 181.693 306.225 181.693C306.985 181.693 307.507 182.076 307.752 182.813L308.55 182.544C308.22 181.478 307.376 180.879 306.233 180.879C304.729 180.879 303.594 182.038 303.594 183.664C303.594 185.291 304.66 186.426 306.256 186.426ZM311.146 186.426C312.282 186.426 313.126 185.559 313.126 184.393C313.126 183.227 312.282 182.383 311.162 182.383C310.026 182.383 309.182 183.25 309.182 184.416C309.182 185.582 310.026 186.426 311.146 186.426ZM311.162 185.674C310.525 185.674 310.064 185.16 310.064 184.401C310.064 183.649 310.509 183.135 311.146 183.135C311.783 183.135 312.243 183.649 312.243 184.409C312.243 185.16 311.798 185.674 311.162 185.674ZM314.82 186.35V180.979H313.938V186.35H314.82ZM317.597 186.426C318.732 186.426 319.576 185.559 319.576 184.393C319.576 183.227 318.732 182.383 317.612 182.383C316.477 182.383 315.633 183.25 315.633 184.416C315.633 185.582 316.477 186.426 317.597 186.426ZM317.612 185.674C316.976 185.674 316.515 185.16 316.515 184.401C316.515 183.649 316.96 183.135 317.597 183.135C318.234 183.135 318.694 183.649 318.694 184.409C318.694 185.16 318.249 185.674 317.612 185.674ZM322.214 182.406C321.808 182.406 321.462 182.606 321.248 183.097V182.491H320.365V186.35H321.248V184.639C321.248 183.618 321.562 183.204 322.107 183.204C322.253 183.204 322.368 183.235 322.46 183.281L322.759 182.552C322.613 182.46 322.429 182.406 322.214 182.406ZM324.554 186.426C325.498 186.426 326.158 185.951 326.158 185.199C326.158 183.588 323.956 184.355 323.956 183.488C323.956 183.219 324.217 183.043 324.592 183.043C324.991 183.043 325.252 183.273 325.375 183.603L326.05 183.381C325.889 182.774 325.383 182.383 324.662 182.383C323.779 182.383 323.158 182.836 323.158 183.572C323.158 185.214 325.337 184.462 325.337 185.299C325.337 185.575 325.06 185.751 324.615 185.751C324.117 185.751 323.787 185.49 323.656 185.068L322.989 185.291C323.15 186.02 323.733 186.426 324.554 186.426Z" fill="#272756"></path><rect x="280.562" y="193.725" width="66.2376" height="21.0756" rx="10.5378" fill="#272756"></rect><circle cx="292.006" cy="203.961" r="6.0216" fill="#625EE9"></circle><circle cx="306.451" cy="203.961" r="6.0216" fill="#BFBDFF"></circle><circle cx="320.904" cy="203.961" r="6.0216" fill="#ECEBFF"></circle><circle cx="335.358" cy="203.961" r="5.69042" stroke="white" stroke-width="0.662377"></circle><path d="M333.518 203.619L335.36 200.672L337.202 203.619C338.106 205.065 337.066 206.942 335.36 206.942C333.654 206.942 332.614 205.065 333.518 203.619Z" fill="#272756" stroke="white" stroke-width="0.662377"></path></g><defs><filter id="filter0_d_8757_76698" x="0.313098" y="0.694861" width="350.96" height="36.4246" filterUnits="userSpaceOnUse" color-interpolation-filters="sRGB"><feFlood flood-opacity="0" result="BackgroundImageFix"></feFlood><feColorMatrix in="SourceAlpha" type="matrix" values="0 0 0 0 0 0 0 0 0 0 0 0 0 0 0 0 0 0 127 0" result="hardAlpha"></feColorMatrix><feOffset dy="5.28606"></feOffset><feGaussianBlur stdDeviation="3.96454"></feGaussianBlur><feComposite in2="hardAlpha" operator="out"></feComposite><feColorMatrix type="matrix" values="0 0 0 0 0 0 0 0 0 0 0 0 0 0 0 0 0 0 0.1 0"></feColorMatrix><feBlend mode="normal" in2="BackgroundImageFix" result="effect1_dropShadow_8757_76698"></feBlend><feBlend mode="normal" in="SourceGraphic" in2="effect1_dropShadow_8757_76698" result="shape"></feBlend></filter><filter id="filter1_d_8757_76698" x="248.403" y="86.4339" width="144.475" height="111.218" filterUnits="userSpaceOnUse" color-interpolation-filters="sRGB"><feFlood flood-opacity="0" result="BackgroundImageFix"></feFlood><feColorMatrix in="SourceAlpha" type="matrix" values="0 0 0 0 0 0 0 0 0 0 0 0 0 0 0 0 0 0 127 0" result="hardAlpha"></feColorMatrix><feOffset dx="6.92171" dy="13.8434"></feOffset><feGaussianBlur stdDeviation="12.9782"></feGaussianBlur><feComposite in2="hardAlpha" operator="out"></feComposite><feColorMatrix type="matrix" values="0 0 0 0 0 0 0 0 0 0 0 0 0 0 0 0 0 0 0.08 0"></feColorMatrix><feBlend mode="normal" in2="BackgroundImageFix" result="effect1_dropShadow_8757_76698"></feBlend><feBlend mode="normal" in="SourceGraphic" in2="effect1_dropShadow_8757_76698" result="shape"></feBlend></filter><filter id="filter2_d_8757_76698" x="249.387" y="153.736" width="141.72" height="111.935" filterUnits="userSpaceOnUse" color-interpolation-filters="sRGB"><feFlood flood-opacity="0" result="BackgroundImageFix"></feFlood><feColorMatrix in="SourceAlpha" type="matrix" values="0 0 0 0 0 0 0 0 0 0 0 0 0 0 0 0 0 0 127 0" result="hardAlpha"></feColorMatrix><feOffset dx="6.5637" dy="13.1274"></feOffset><feGaussianBlur stdDeviation="12.3069"></feGaussianBlur><feComposite in2="hardAlpha" operator="out"></feComposite><feColorMatrix type="matrix" values="0 0 0 0 0 0 0 0 0 0 0 0 0 0 0 0 0 0 0.08 0"></feColorMatrix><feBlend mode="normal" in2="BackgroundImageFix" result="effect1_dropShadow_8757_76698"></feBlend><feBlend mode="normal" in="SourceGraphic" in2="effect1_dropShadow_8757_76698" result="shape"></feBlend></filter><clipPath id="clip0_8757_76698"><rect width="16.0206" height="16.0206" fill="white" transform="translate(28.5469 37.4521)"></rect></clipPath></defs></svg> 